<svg xmlns="http://www.w3.org/2000/svg" viewBox="0 0 323.1 89.5"><defs/><path fill="#ccc" d="M21.6 69v1.3L.5 58.2v-1.3z"/><path fill="gray" d="M21.6 69l14.8-8.4v1.3l-14.8 8.4z"/><path fill="#fff" d="M.5 56.9l14.7-8.5 21.2 12.2L21.6 69z"/><path fill="#999" d="M38.4 41.6l1-.6-2 19-1 .6zm-15 24v.3L5.7 55.7v-.2z"/><path fill="#b3b3b3" d="M23.5 65.7l10.1-5.8v.3l-10.1 5.7z"/><path fill="#e6e6e6" d="M5.6 55.5l10.1-5.8 17.9 10.2-10.1 5.8zm2.6 5.4l2.9-1.6 5.1 3-2.9 1.6zm30.2-19.3l-2 19-21.2-12.2 2-19z"/><path fill="#0071bc" d="M35.5 59L16.1 48l2-17 19.5 11-2 17z"/><path fill="#b3b3b3" d="M17.3 29.5l1-.6L39.3 41l-1 .6z"/><path fill="none" stroke="#000" stroke-linecap="round" stroke-linejoin="round" d="M37.4 60l2-19L18.2 29l-1 .6h0l-2 19h0L.5 56.8h0v1.3l21.1 12v0L36.4 62v-1.3h0v0z"/><path fill="#b3b3b3" d="M304.4 44.2v29.2l-11.5-7V37z"/><path fill="#333" d="M302.3 45.1v3.5l-8.2-5V40zm0 11.8v3.5l-8.2-5v-3.5z"/><path fill="#e6e6e6" d="M302.3 52.5v1l-8.2-5v-1z"/><path fill="#333" d="M302.3 61.9v3.4l-8.2-5v-3.5zm0 5v3.4l-8.2-5v-3.5z"/><path fill="gray" d="M304.4 44.2l18.2-11.5V62l-18.2 11.5z"/><path fill="#999" d="M293 37.2l18.2-11.5 11.4 7-18.2 11.5z"/><path fill="#009245" d="M294.4 44l.3.6c0 .3-.2.3-.3.2a.7.7 0 01-.3-.5c0-.3.1-.3.3-.2"/><path fill="#c1272d" d="M295.1 44.5c.2.1.4.4.4.6 0 .2-.2.3-.4.2a.7.7 0 01-.3-.6c0-.2.2-.3.3-.2"/><path fill="#009245" d="M296 45a.8.8 0 01.2.6c0 .2-.1.3-.3.2a.8.8 0 01-.3-.6c0-.2.1-.3.3-.2"/><path fill="#c1272d" d="M296.7 45.5c.2 0 .3.3.3.6 0 .2-.2.3-.3.1a.8.8 0 01-.3-.5c0-.3.1-.3.3-.2m.8.4a.7.7 0 01.3.6c0 .2-.2.3-.4.2a.8.8 0 01-.3-.6c0-.2.2-.3.4-.2"/><path fill="#009245" d="M298.2 46.4c.2.1.3.4.3.6 0 .2-.1.3-.3.2a.8.8 0 01-.3-.6c0-.2.1-.3.3-.2m.8.5a.8.8 0 01.3.6c0 .2-.1.3-.3.2a.7.7 0 01-.3-.6c0-.2.1-.3.3-.2m.8.5c.1 0 .3.3.3.5 0 .3-.2.3-.4.2a.7.7 0 01-.3-.5c0-.3.2-.4.4-.2"/><path fill="#c1272d" d="M294.4 45.2c.2.1.3.4.3.6 0 .2-.2.3-.3.2a.7.7 0 01-.3-.6c0-.2.1-.3.3-.2m.7.5c.2 0 .4.3.4.6 0 .2-.2.3-.4.1a.8.8 0 01-.3-.5c0-.3.2-.3.3-.2"/><path fill="#009245" d="M296 46.1l.2.6c0 .2-.1.3-.3.2a.8.8 0 01-.3-.6c0-.2.1-.3.3-.2"/><path fill="#c1272d" d="M296.7 46.6c.2.1.3.4.3.6 0 .2-.2.3-.3.2a.8.8 0 01-.3-.6c0-.2.1-.3.3-.2"/><path fill="#009245" d="M297.5 47a.7.7 0 01.3.7c0 .2-.2.3-.4.2a.8.8 0 01-.3-.6c0-.2.2-.3.4-.2"/><path fill="#c1272d" d="M298.2 47.6c.2 0 .3.3.3.5 0 .3-.1.3-.3.2a.8.8 0 01-.3-.5c0-.3.1-.3.3-.2"/><path fill="#009245" d="M299 48a.8.8 0 01.3.6c0 .2-.1.3-.3.2a.7.7 0 01-.3-.6c0-.2.1-.3.3-.2"/><path fill="#c1272d" d="M299.8 48.5a.8.8 0 01.3.6c0 .2-.2.3-.4.2a.8.8 0 01-.3-.6c0-.2.2-.3.4-.2"/><path fill="#009245" d="M300.3 53.4c.2 0 .4.3.4.6 0 .2-.2.3-.4.2a.8.8 0 01-.3-.6c0-.2.2-.3.3-.2m.8.4a.8.8 0 01.3.6c0 .2-.1.3-.3.2a.7.7 0 01-.3-.6c0-.2.1-.3.3-.2"/><path fill="#c1272d" d="M301.9 54.3c.2.1.3.4.3.6 0 .2-.1.3-.3.2a.7.7 0 01-.3-.6c0-.2.1-.3.3-.2m-1.6.2c.2.1.4.4.4.6 0 .2-.2.3-.4.2a.7.7 0 01-.3-.6c0-.2.2-.3.3-.2m.8.5a.8.8 0 01.3.6c0 .2-.1.3-.3.1a.7.7 0 01-.3-.5c0-.2.1-.3.3-.2"/><path fill="#009245" d="M301.9 55.4l.3.6c0 .2-.1.3-.3.2a.7.7 0 01-.3-.6c0-.2.1-.3.3-.2"/><path fill="none" stroke="#000" stroke-linecap="round" stroke-linejoin="round" d="M322.6 32.7l-11.4-7L293 37.2h0v29.2l11.4 7v0L322.6 62V32.8z"/><path fill="#fff" fill-rule="evenodd" d="M68.3 16H264v67H68.3z" clip-rule="evenodd"/><path fill="none" stroke="#000" stroke-linecap="round" stroke-linejoin="round" d="M68.3 16H264v67H68.3z"/><path fill="none" stroke="#000" stroke-dasharray="1 1" d="M68.3 34H264"/><path fill="#4d4d4d" fill-rule="evenodd" d="M63.5 64l-6.1-6.9V61H45v6.2h12.4V71zM45 34l6-6.9V31h12.5v6.2H51V41zm241.5 30l-6.1-6.9V61H268v6.2h12.4V71zM268 34l6-6.9V31h12.5v6.2H274V41z" clip-rule="evenodd"/><path fill="#fddfbb" fill-rule="evenodd" stroke="#000" stroke-linecap="round" stroke-linejoin="round" d="M76 22.4h39.2v23.4H76z" clip-rule="evenodd"/><path fill="#b2dec7" fill-rule="evenodd" stroke="#000" stroke-linecap="round" stroke-linejoin="round" d="M115.2 22.4h39.2v23.4h-39.2zm39.2 0h39.3v23.4h-39.3z" clip-rule="evenodd"/><path fill="#fddfbb" fill-rule="evenodd" stroke="#000" stroke-linecap="round" stroke-linejoin="round" d="M193.7 22.4h39.2v23.4h-39.2z" clip-rule="evenodd"/><path fill="none" stroke="#000" stroke-dasharray="1 1" d="M68.3 64H264"/><path fill="#b2d4eb" fill-rule="evenodd" stroke="#000" stroke-linecap="round" stroke-linejoin="round" d="M193.7 52.4h39.2v23.4h-39.2z" clip-rule="evenodd"/><path fill="#e6e6e6" fill-rule="evenodd" stroke="#000" stroke-linecap="round" stroke-linejoin="round" d="M233 22.4h22.6v23.4h-22.7z" clip-rule="evenodd"/><path d="M15.2 81.1a2 2 0 01-.9.2c-1.1 0-2-1-2-3 0-2.4 1.2-3.2 2.2-3.2l.7.1-.2.6-.6-.1c-.6 0-1.4.6-1.4 2.5 0 1.8.7 2.4 1.5 2.4a1.6 1.6 0 00.6 0l.1.5zM16 75h.6v6.2H16V75zm2 1.2c-.2 0-.4-.2-.4-.5 0-.2.2-.4.4-.4.3 0 .4.2.4.4s-.1.5-.4.5zm-.3 5v-4.4h.7v4.4h-.7zm2.1-2.1c0 1.3.5 1.6 1 1.6l.8-.1v.5l-.9.2c-1 0-1.6-.9-1.6-2.2 0-1.4.6-2.3 1.5-2.3s1.3 1 1.3 1.9v.4h-2zm1.4-.5c0-.9-.3-1.3-.7-1.3-.4 0-.6.7-.7 1.3h1.4zm1.4-.6v-1.1h.6v.5c.2-.4.6-.6 1-.6.6 0 1 .4 1 1.5v3h-.6v-2.9c0-.5-.1-1-.6-1-.3 0-.6.2-.7.7a1.6 1.6 0 000 .4v2.7h-.7V78zm4.4-2.2v1h.9v.6h-.9V80c0 .5.2.7.5.7h.3v.5a1.5 1.5 0 01-.5 0c-.3 0-.5 0-.7-.2-.2-.2-.3-.5-.3-1.1v-2.5h-.5v-.5h.5V76l.7-.3zm43.3-74v3h1.7v-3h1.2v7.4h-1.2V6h-1.7v3.3H69V1.8h1.2zm5 1H74v-1h3.8v1h-1.3v6.4h-1.2V3zm4.3 0H78v-1H82v1h-1.3v6.4h-1.2V3zm3.3-.9a6.1 6.1 0 011.4-.1c.7 0 1.4.1 1.8.5.4.4.6 1 .6 1.6 0 .8-.2 1.3-.5 1.7-.5.5-1.2.7-1.8.7H84v3h-1.2V1.8zM84 5.3h.2c.8 0 1.2-.5 1.2-1.3 0-.7-.2-1.3-1-1.3a1.3 1.3 0 00-.4 0v2.6zm5 4v-.9l.6-.8c.9-1.2 1.7-2.4 1.7-3.5 0-.7-.3-1.1-1-1.1-.4 0-.7.2-1 .3l-.2-.9c.3-.2.9-.4 1.5-.4 1.4 0 2 1 2 2 0 1.3-1 2.5-1.8 3.6l-.5.6h2.3v1H89zm5.4 0c-.4 0-.8-.3-.8-.8s.4-.8.8-.8.7.3.7.8-.3.8-.7.8zm3.3 0c-1.3 0-2-1.6-2-3.6 0-2.3.7-3.7 2-3.7 1.5 0 2 1.6 2 3.6 0 2.6-.9 3.7-2 3.7zm0-1c.6 0 .8-1 .8-2.7 0-1.6-.2-2.6-.7-2.6-.6 0-.9 1-.9 2.6 0 1.7.3 2.7.9 2.7zm7.4.8l-1 .2c-1.2 0-2-1-2-2.7 0-1.6.8-2.8 2.3-2.8l.7.1-.2 1-.5-.2c-.8 0-1.2.9-1.2 1.8 0 1.1.5 1.8 1.2 1.8l.5-.1.2.9zm2.3.2c-1.2 0-2-1-2-2.8 0-1.9 1-2.7 2-2.7 1.1 0 1.9 1 1.9 2.7 0 2.2-1.1 2.8-2 2.8zm0-1c.6 0 .7-1 .7-1.8s-.1-1.8-.7-1.8c-.7 0-.8 1-.8 1.8 0 1 .2 1.9.8 1.9zm2.8-3V3.9h1v.7c.3-.5.7-.7 1.3-.7.9 0 1.4.7 1.4 1.9v3.5h-1.2V5.8c0-.5-.1-1-.6-1-.3 0-.6.2-.7.6v3.8h-1.2V5.4zm4.7 0V3.9h1v.7c.3-.5.8-.7 1.4-.7.9 0 1.3.7 1.3 1.9v3.5h-1.1V5.8c0-.5-.2-1-.7-1-.3 0-.5.2-.6.6v3.8h-1.3V5.4zm5.8 1.5c0 1.2.5 1.6 1.1 1.6l1-.2.2.8c-.4.2-.9.3-1.4.3-1.4 0-2-1-2-2.7 0-1.8.8-2.8 1.9-2.8 1.1 0 1.7 1 1.7 2.4v.6h-2.5zM122 6c0-.9-.3-1.4-.7-1.4-.5 0-.7.8-.7 1.4h1.4zm4.8 3.1l-1 .2c-1.2 0-2-1-2-2.7 0-1.6.8-2.8 2.2-2.8l.8.1-.2 1-.5-.2c-.8 0-1.2.9-1.2 1.8 0 1.1.4 1.8 1.2 1.8l.5-.1.2.9zm2.2-6.6V4h1v.8h-1v2.8c0 .6.2.8.5.8h.4v.9h-.8c-.3 0-.7 0-.9-.3-.3-.2-.4-.6-.4-1.4V4.7h-.6v-.9h.6V3l1.2-.4zm2.3.6c-.4 0-.6-.2-.6-.6 0-.5.2-.7.6-.7.4 0 .6.2.6.7 0 .4-.2.6-.6.6zm-.6 6.1V4h1.2v5.3h-1.2zm4 .1c-1.2 0-2-1-2-2.8 0-1.9 1-2.7 2-2.7 1.1 0 2 1 2 2.7 0 2.2-1.2 2.8-2 2.8zm0-1c.6 0 .7-1 .7-1.8s-.1-1.8-.7-1.8-.8 1-.8 1.8c0 1 .2 1.9.8 1.9zm2.8-3V3.9h1v.7c.3-.5.7-.7 1.3-.7.9 0 1.4.7 1.4 1.9v3.5H140V5.8c0-.5-.1-1-.6-1-.3 0-.6.2-.7.6v3.8h-1.2V5.4zm161.8 75.1l.9.2c.6 0 1-.4 1-1 0-.5-.3-.9-.8-1.2-.5-.4-1.1-1-1.1-1.7 0-1 .6-1.6 1.6-1.6l.8.2-.2.6a1.3 1.3 0 00-.7-.2c-.6 0-.9.4-.9.9 0 .6.4.8 1 1.2.7.5 1 1 1 1.8 0 1-.7 1.7-1.7 1.7a2 2 0 01-1-.3l.1-.6zm3.9-1.3c0 1.3.5 1.6 1 1.6l.7-.1.2.5-1 .2c-1 0-1.6-.9-1.6-2.2 0-1.4.6-2.3 1.5-2.3s1.2 1 1.2 1.9v.4h-2zm1.4-.5c0-.9-.3-1.3-.7-1.3-.4 0-.7.7-.7 1.3h1.4zm1.4-.6v-1.1h.6v.6c.2-.4.5-.7 1-.7v.7c-.5 0-.8.4-1 .9a2.6 2.6 0 000 .4v2.4h-.6V78zm2.8-1.1l.5 2.4.2 1 .2-1 .6-2.4h.7l-1.2 4.3h-.6l-1.1-4.3h.7zM312 79c0 1.3.6 1.6 1 1.6l.8-.1.1.5-1 .2c-1 0-1.5-.9-1.5-2.2 0-1.4.6-2.3 1.4-2.3 1 0 1.3 1 1.3 1.9v.4h-2zm1.4-.5c0-.9-.3-1.3-.6-1.3-.5 0-.7.7-.8 1.3h1.4zm1.4-.6v-1.1h.6v.6c.2-.4.6-.7 1-.7h.1v.7h-.1c-.5 0-.8.4-.9.9a2.6 2.6 0 000 .4v2.4h-.7V78zM86 31.5l.7.2c.4 0 .7-.2.7-.6 0-.3-.1-.6-.6-.8-.5-.4-.8-.8-.8-1.3 0-.7.5-1.2 1.1-1.2l.8.2-.2.6a1 1 0 00-.5-.2c-.4 0-.6.2-.6.5s.1.5.5.8c.5.3 1 .7 1 1.3 0 .9-.7 1.3-1.4 1.3-.3 0-.6-.1-.8-.3l.1-.5zm3.6-4.6v1h.8v.5h-.8V31c0 .6.2.7.5.7h.2v.5a1.5 1.5 0 01-.4 0c-.3 0-.6 0-.7-.2-.2-.2-.3-.5-.3-1v-2.6h-.5v-.5h.5V27l.7-.2zM91 29v-1.1h.6v.7c.2-.5.6-.8 1-.8h.1v.7h-.1c-.4 0-.8.4-.8 1a2.6 2.6 0 000 .3v2.4h-.8V29zm2.6 1.1c0 1.4.6 1.6 1 1.6l.8-.1.1.5-1 .2c-1 0-1.5-.9-1.5-2.2 0-1.4.6-2.3 1.4-2.3 1 0 1.3 1 1.3 2v.3h-2zm1.4-.5c0-.9-.3-1.3-.6-1.3-.5 0-.7.7-.7 1.3h1.3zm3.7 1.6v1H98v-.4a1 1 0 01-.9.5c-.6 0-1-.5-1-1.2 0-1.1.8-1.6 1.8-1.6v-.2c0-.5-.1-1-.7-1-.2 0-.5.1-.7.3l-.1-.5c.2-.1.5-.3 1-.3.9 0 1.2.6 1.2 1.6v1.8zM98 30c-.3 0-1.1 0-1.1 1 0 .6.2.8.5.8s.5-.3.6-.7a1.2 1.2 0 000-.2v-1zm1.7-1v-1.1h.6v.5a1 1 0 011-.6c.4 0 .8.2 1 .7a1.5 1.5 0 01.4-.5l.6-.2c.6 0 1 .4 1 1.5v3h-.7v-2.8c0-.6 0-1.1-.6-1.1-.3 0-.5.2-.6.6V32.2h-.7v-2.8c0-.5-.1-1-.6-1-.3 0-.6.2-.7.7a2.3 2.3 0 000 .4v2.7h-.7V29zm8.2-2l-1 .6-.1-.5 1.2-.7h.6v5.8h-.7v-5.1zm-11.6 8.3l1-.2c.6 0 1 .2 1.4.5.4.4.8 1.2.8 2.5s-.3 2.1-.7 2.5c-.4.5-1 .7-1.7.7a4 4 0 01-.8 0v-6zm.7 5.4h.3c.7 0 1.5-.6 1.5-2.6 0-1.6-.5-2.4-1.5-2.4H97v5zm3.9-1.3l-.4 1.8h-.7l1.4-6h.8l1.3 6h-.7l-.4-1.8h-1.3zm1.2-.5l-.3-1.6-.2-1.4-.3 1.4-.3 1.6h1.1zm2.1-3.1h-1v-.6h2.8v.6h-1v5.4h-.8v-5.4zm2.8 3.6l-.4 1.8h-.6l1.3-6h.8l1.4 6h-.7l-.4-1.8h-1.4zm1.3-.5l-.3-1.6-.3-1.4c0 .5-.2 1-.3 1.4L107 39h1.2zm17-7.4l.7.2c.4 0 .6-.2.6-.6 0-.3 0-.6-.5-.8-.6-.4-.9-.8-.9-1.3 0-.7.5-1.2 1.2-1.2l.8.2-.2.6a1 1 0 00-.6-.2c-.4 0-.5.2-.5.5s0 .5.5.8c.5.3.9.7.9 1.3 0 .9-.6 1.3-1.3 1.3-.3 0-.7-.1-.9-.3l.2-.5zm3.6-4.6v1h.8v.5h-.8V31c0 .6.2.7.4.7h.3v.5a1.5 1.5 0 01-.5 0c-.3 0-.5 0-.7-.2-.2-.2-.2-.5-.2-1v-2.6h-.6v-.5h.6V27l.7-.2zm1.4 2.1v-1.1h.6v.7c.2-.5.5-.8 1-.8h.1v.7h-.1c-.5 0-.8.4-.9 1a2.6 2.6 0 000 .3v2.4h-.7V29zm2.6 1.1c0 1.4.5 1.6 1 1.6l.7-.1.2.5-1 .2c-1 0-1.6-.9-1.6-2.2 0-1.4.6-2.3 1.5-2.3s1.2 1 1.2 2v.3h-2zm1.4-.5c0-.9-.3-1.3-.7-1.3-.4 0-.7.7-.7 1.3h1.4zm3.7 1.6v1h-.6v-.4a1 1 0 01-1 .5c-.5 0-1-.5-1-1.2 0-1.1.9-1.6 1.9-1.6v-.2c0-.5-.2-1-.7-1-.3 0-.5.1-.7.3l-.2-.5c.2-.1.6-.3 1-.3 1 0 1.3.6 1.3 1.6v1.8zm-.7-1.2c-.4 0-1.2 0-1.2 1 0 .6.3.8.5.8.3 0 .6-.3.7-.7a1.2 1.2 0 000-.2v-1zm1.7-1v-1.1h.5v.5a1 1 0 011-.6c.5 0 .8.2 1 .7a1.5 1.5 0 01.4-.5l.6-.2c.6 0 1 .4 1 1.5v3h-.6v-2.8c0-.6-.1-1.1-.6-1.1-.3 0-.6.2-.7.6V32.2h-.7v-2.8c0-.5 0-1-.6-1-.3 0-.5.2-.6.7a2.3 2.3 0 000 .4v2.7h-.7V29zm6.9 2.5l.8.2c.6 0 1-.4 1-1.1 0-.8-.5-1.2-1.2-1.2h-.1v-.6h.1c.4 0 1-.3 1-1 0-.6-.2-1-.7-1-.3 0-.5.2-.7.4l-.2-.6c.2-.1.6-.3 1-.3.9 0 1.4.6 1.4 1.4 0 .5-.3 1-1 1.3.6.2 1.1.7 1.1 1.6 0 1-.6 1.7-1.7 1.7a2 2 0 01-1-.3l.2-.5zm-21.1 3.7v2.6h1.7v-2.6h.7v6h-.7v-2.8h-1.7v2.8h-.7v-6h.7zm5.7 3.2h-1.6v2.2h1.8v.6H128v-6h2.4v.6h-1.7v2h1.6v.6zm1.7 1l-.4 1.8h-.7l1.4-6h.7l1.4 6h-.7l-.4-1.8h-1.3zm1.2-.5l-.3-1.6-.2-1.4-.3 1.4-.3 1.6h1.1zm2-3.6l.9-.2c.6 0 1 .2 1.4.5.5.4.8 1.2.8 2.5s-.3 2.1-.7 2.5c-.4.5-1 .7-1.7.7a4 4 0 01-.8 0v-6zm.6 5.4h.3c.8 0 1.5-.6 1.5-2.6 0-1.6-.5-2.4-1.4-2.4h-.4v5zm5.6-2.3h-1.6v2.2h1.8v.6h-2.4v-6h2.3v.6h-1.7v2h1.6v.6zm1-3.1a4 4 0 011-.2c.5 0 1 .2 1.3.5.3.3.4.7.4 1.2 0 .7-.3 1.2-1 1.5.5.2.7.6.9 1.4l.3 1.5h-.7l-.3-1.5c-.1-.8-.4-1.1-1-1.1h-.3v2.6h-.7v-6zm.6 2.8h.3c.7 0 1.1-.5 1.1-1.3 0-.7-.3-1-1-1.1h-.4v2.4zm2.9 2.3c.2.2.5.3.9.3.6 0 1-.4 1-1s-.4-1-.8-1.3c-.5-.3-1.2-1-1.2-1.7 0-1 .7-1.6 1.6-1.6l.9.2-.2.6a1.3 1.3 0 00-.7-.2c-.6 0-.9.5-.9.9 0 .6.3.8.9 1.2.7.6 1 1.1 1 1.8 0 1-.7 1.7-1.6 1.7a2 2 0 01-1-.3v-.6zm18.4-8.9l.7.2c.4 0 .7-.2.7-.6 0-.3-.1-.6-.6-.8-.5-.4-.8-.8-.8-1.3 0-.7.5-1.2 1.1-1.2l.8.2-.2.6a1 1 0 00-.5-.2c-.4 0-.6.2-.6.5s.1.5.5.8c.5.3 1 .7 1 1.3 0 .9-.7 1.3-1.4 1.3-.3 0-.6-.1-.8-.3l.1-.5zM168 27v1h.8v.5h-.8V31c0 .6.2.7.5.7h.2v.5a1.5 1.5 0 01-.4 0c-.3 0-.6 0-.7-.2-.2-.2-.3-.5-.3-1v-2.6h-.5v-.5h.5V27l.7-.2zm1.4 2.1v-1.1h.6v.7c.2-.5.6-.8 1-.8h.1v.7h-.1c-.4 0-.8.4-.8 1a2.6 2.6 0 000 .3v2.4h-.8V29zm2.6 1.1c0 1.4.6 1.6 1 1.6l.8-.1.1.5-1 .2c-1 0-1.5-.9-1.5-2.2 0-1.4.6-2.3 1.4-2.3 1 0 1.3 1 1.3 2v.3h-2zm1.4-.5c0-.9-.3-1.3-.6-1.3-.5 0-.7.7-.7 1.3h1.3zm3.7 1.6v1h-.6v-.4a1 1 0 01-.9.5c-.6 0-1-.5-1-1.2 0-1.1.8-1.6 1.8-1.6v-.2c0-.5-.1-1-.7-1-.2 0-.5.1-.7.3l-.1-.5c.2-.1.5-.3 1-.3.9 0 1.2.6 1.2 1.6v1.8zm-.7-1.2c-.3 0-1.1 0-1.1 1 0 .6.2.8.5.8s.5-.3.6-.7a1.2 1.2 0 000-.2v-1zm1.7-1v-1.1h.6v.5a1 1 0 011-.6c.4 0 .8.2 1 .7 0-.3.2-.4.4-.5l.6-.2c.6 0 1 .4 1 1.5v3h-.7v-2.8c0-.6 0-1.1-.6-1.1-.3 0-.5.2-.6.6V32.2h-.7v-2.8c0-.5-.1-1-.6-1-.3 0-.6.2-.7.7a2.3 2.3 0 000 .4v2.7h-.7V29zm7 2.5l.8.2c.6 0 1-.4 1-1.1 0-.8-.5-1.2-1.2-1.2h-.2v-.6h.2c.4 0 1-.3 1-1 0-.6-.3-1-.8-1l-.7.4-.1-.6c.2-.1.6-.3 1-.3.8 0 1.3.6 1.3 1.4 0 .5-.3 1-.9 1.3.6.2 1 .7 1 1.6 0 1-.5 1.7-1.6 1.7a2 2 0 01-1-.3l.1-.5zm-10.4 3.8l1-.2c.6 0 1 .2 1.4.5.4.4.8 1.2.8 2.5s-.3 2.1-.7 2.5c-.4.5-1 .7-1.7.7a4 4 0 01-.8 0v-6zm.7 5.4h.3c.7 0 1.5-.6 1.5-2.6 0-1.6-.5-2.4-1.5-2.4h-.3v5zm3.9-1.3l-.4 1.8h-.7l1.4-6h.8l1.3 6h-.7l-.4-1.8h-1.3zm1.2-.5l-.3-1.6-.2-1.4-.3 1.4-.3 1.6h1.1zm2.1-3.1h-1v-.6h2.8v.6h-1v5.4h-.8v-5.4zm2.8 3.6l-.4 1.8h-.6l1.3-6h.8l1.4 6h-.7l-.4-1.8h-1.4zm1.3-.5l-.3-1.6a32 32 0 01-.3-1.4c0 .5-.2 1-.3 1.4l-.3 1.6h1.2zm17-7.4l.7.2c.4 0 .6-.2.6-.6 0-.3 0-.6-.5-.8-.6-.4-.9-.8-.9-1.3 0-.7.5-1.2 1.2-1.2l.8.2-.2.6a1 1 0 00-.6-.2c-.4 0-.6.2-.6.5s.2.5.6.8c.5.3.9.7.9 1.3 0 .9-.6 1.3-1.3 1.3-.3 0-.7-.1-.9-.3l.2-.5zm3.6-4.6v1h.8v.5h-.8V31c0 .6.2.7.4.7h.3v.5a1.5 1.5 0 01-.5 0c-.3 0-.5 0-.7-.2-.2-.2-.2-.5-.2-1v-2.6h-.6v-.5h.6V27l.7-.2zm1.4 2.1v-1.1h.6v.7c.2-.5.5-.8 1-.8a.7.7 0 01.1 0v.7h-.1c-.5 0-.8.4-.9 1a2.6 2.6 0 000 .3v2.4h-.7V29zm2.6 1.1c0 1.4.5 1.6 1 1.6l.7-.1.2.5a2 2 0 01-1 .2c-1 0-1.6-.9-1.6-2.2 0-1.4.6-2.3 1.5-2.3s1.2 1 1.2 2v.3h-2zm1.4-.5c0-.9-.4-1.3-.7-1.3-.4 0-.7.7-.7 1.3h1.4zm3.7 1.6v1h-.6v-.4a1 1 0 01-1 .5c-.5 0-1-.5-1-1.2 0-1.1.9-1.6 1.9-1.6v-.2c0-.5-.2-1-.7-1-.3 0-.5.1-.7.3l-.2-.5c.2-.1.6-.3 1-.3.9 0 1.3.6 1.3 1.6v1.8zm-.7-1.2c-.4 0-1.2 0-1.2 1 0 .6.3.8.5.8.3 0 .6-.3.7-.7V30zm1.7-1v-1.1h.5v.5a1 1 0 011-.6c.5 0 .8.2 1 .7a1.5 1.5 0 01.4-.5l.6-.2c.6 0 1 .4 1 1.5v3h-.6v-2.8c0-.6-.1-1.1-.6-1.1-.3 0-.6.2-.7.6V32.2h-.7v-2.8c0-.5 0-1-.6-1-.3 0-.5.2-.6.7a2.2 2.2 0 000 .4v2.7h-.7V29zm8.2-2l-1 .6-.2-.5 1.3-.7h.5v5.8h-.7v-5.1zM214 35.4l1-.2c.5 0 1 .2 1.3.5.5.4.8 1.2.8 2.5s-.3 2.1-.7 2.5c-.4.5-1 .7-1.7.7a4 4 0 01-.7 0v-6zm.7 5.4h.2c.8 0 1.5-.6 1.5-2.6 0-1.6-.4-2.4-1.4-2.4h-.3v5zm3.8-1.3l-.4 1.8h-.6l1.3-6h.8l1.4 6h-.7l-.4-1.8h-1.4zm1.3-.5l-.3-1.6-.3-1.4c0 .5-.2 1-.3 1.4l-.3 1.6h1.2zm2-3.1h-1v-.6h2.9v.6h-1.1v5.4h-.7v-5.4zm2.9 3.6l-.4 1.8h-.7l1.4-6h.8l1.3 6h-.7l-.4-1.8h-1.3zm1.2-.5l-.3-1.6-.2-1.4-.3 1.4-.3 1.6h1.1zm-22.2 22.6l.7.2c.4 0 .6-.2.6-.6 0-.3 0-.6-.5-.8-.6-.4-.9-.8-.9-1.3 0-.7.5-1.2 1.2-1.2l.8.2-.2.6a1 1 0 00-.6-.2c-.4 0-.6.2-.6.5s.2.5.6.8c.5.3.9.7.9 1.3 0 .9-.6 1.3-1.3 1.3-.3 0-.7-.1-.9-.3l.2-.5zm3.6-4.6v1h.8v.5h-.8V61c0 .6.2.7.4.7h.3v.5a1.5 1.5 0 01-.5 0c-.3 0-.5 0-.7-.2-.2-.2-.2-.5-.2-1v-2.6h-.6v-.5h.6V57l.7-.2zm1.4 2.1v-1.1h.6v.7c.2-.5.5-.8 1-.8a.7.7 0 01.1 0v.7h-.1c-.5 0-.8.4-.9 1a2.6 2.6 0 000 .3v2.4h-.7V59zm2.6 1.1c0 1.4.5 1.6 1 1.6l.7-.1.2.5a2 2 0 01-1 .2c-1 0-1.6-.9-1.6-2.2 0-1.4.6-2.3 1.5-2.3s1.2 1 1.2 2v.3h-2zm1.4-.5c0-.9-.4-1.3-.7-1.3-.4 0-.7.7-.7 1.3h1.4zm3.7 1.6v1h-.6v-.4a1 1 0 01-1 .5c-.5 0-1-.5-1-1.2 0-1.1.9-1.6 1.9-1.6v-.2c0-.5-.2-1-.7-1-.3 0-.5.1-.7.3l-.2-.5c.2-.1.6-.3 1-.3.9 0 1.3.6 1.3 1.6v1.8zm-.7-1.2c-.4 0-1.2 0-1.2 1 0 .6.3.8.5.8.3 0 .6-.3.7-.7V60zm1.7-1v-1.1h.5v.5a1 1 0 011-.6c.5 0 .8.2 1 .7a1.5 1.5 0 01.4-.5l.6-.2c.6 0 1 .4 1 1.5v3h-.6v-2.8c0-.6-.1-1.1-.6-1.1-.3 0-.6.2-.7.6V62.2h-.7v-2.8c0-.5 0-1-.6-1-.3 0-.5.2-.6.7a2.2 2.2 0 000 .4v2.7h-.7V59zm9.5-2h-1.6l-.3 1.6h.3c.3 0 .8 0 1 .4.4.3.6.7.6 1.3 0 1.2-.8 2-1.8 2a2 2 0 01-1-.2l.1-.6.9.2c.6 0 1-.4 1-1.3 0-1-.5-1.3-1.3-1.3h-.4l.4-2.7h2v.6zm-13 8.3l1-.2c.6 0 1 .2 1.4.5.5.4.8 1.2.8 2.5s-.3 2.1-.7 2.5c-.4.5-1 .7-1.7.7a4 4 0 01-.7 0v-6zm.8 5.4h.2c.8 0 1.5-.6 1.5-2.6 0-1.6-.4-2.4-1.4-2.4h-.3v5zm3.8-1.3l-.4 1.8h-.6l1.3-6h.8l1.4 6h-.7l-.4-1.8h-1.4zm1.3-.5l-.3-1.6-.3-1.4c0 .5-.2 1-.3 1.4l-.3 1.6h1.2zm2-3.1h-1v-.6h2.9v.6h-1.1v5.4h-.7v-5.4zm2.9 3.6l-.4 1.8h-.7l1.4-6h.8l1.3 6h-.7l-.4-1.8h-1.3zm1.2-.5l-.3-1.6-.2-1.4-.3 1.4-.3 1.6h1.1zm16.6-32c-.2 0-.4-.3-.4-.6s.2-.5.4-.5c.3 0 .5.2.5.5s-.2.5-.5.5zm1.8 0c-.3 0-.5-.3-.5-.6s.2-.5.5-.5.4.2.4.5-.1.5-.4.5zm1.7 0c-.2 0-.4-.3-.4-.6s.2-.5.4-.5c.3 0 .5.2.5.5s-.2.5-.5.5z"/></svg>